{"title":"Savannah 2013 WEBRip 480p x264 AAC - VYTO [P2PDL]","uid":8749058,"size":367965131,"categoryP":"video","categoryS":"movies","magnet":"?xt=urn:btih:1589737651f9659d04115e1f7c7bace17204ce1c&amp;dn=Savannah+2013+WEBRip+480p+x264+AAC+-+VYTO+%5BP2PDL%5D&amp;tr=udp%3A%2F%2Ftracker.openbittorrent.com%3A80&amp;tr=udp%3A%2F%2Fopen.demonii.com%3A1337&amp;tr=udp%3A%2F%2Ftracker.coppersurfer.tk%3A6969&amp;tr=udp%3A%2F%2Fexodus.desync.com%3A6969","seeders":1,"leechers":0,"uploader":"ValidusVyto","files":-1,"time":1374992267,"description":"_______ Visit us at our Semi Public Bittorrent Community ________\n  &lt;a href=&quot;\nhttp://p2pdl.com&quot; rel=&quot;nofollow&quot; target=&quot;_NEW&quot;&gt;\nhttp://p2pdl.com&lt;/a&gt;  _____________________________ &lt;a href=&quot; http://p2pdl.com&quot; rel=&quot;nofollow&quot; target=&quot;_NEW&quot;&gt; http://p2pdl.com&lt;/a&gt;\n\n\nSavannah 2013 WEBRip 480p x264 AAC - VYTO\n\n\nGenre: Drama | Family | History \nPlot: SAVANNAH is the true story of Ward Allen, a romantic and bombastic character\nwho rejects his plantation heritage for the freedom of life on a river. Ward navigates\nthe change of early 20th ... \nDirector: Annette Haywood-Carter\nStars: Chiwetel Ejiofor, Jaimie Alexander, Jim Caviezel.\nRated: PG-13 for brief sexuality.\n\n\nIMDb: &lt;a href=&quot;\nhttp://www.imdb.com/title/tt1797487/&quot; rel=&quot;nofollow&quot; target=&quot;_NEW&quot;&gt;\nhttp://www.imdb.com/title/tt1797487/&lt;/a&gt;\n\nTrailer:\n\n\nFormat                         : MPEG-4\nFile size                      : 346 MiB\nDuration                       : 1h 49mn\nOverall bit rate               : 442 Kbps\nSource                         : 1080p.WEB-DL.H264-PublicHD\n\nVideo\nFormat                         : AVC\nBit rate                       : 399 Kbps\nWidth                          : 720 pixels\nHeight                         : 304 pixels\nDisplay aspect ratio           : 2.35:1\nFrame rate mode                : Constant\nFrame rate                     : 23.976 fps\nStream size                    : 313 MiB (90%)\nWriting library                : x264 core 130 r2273\n\nAudio\nFormat                         : AAC\nBit rate mode                  : Variable\nBit rate                       : 40.0 Kbps\nChannel(s)                     : 2 channels\nChannel positions              : Front: L R\nSampling rate                  : 48.0 KHz\nStream size                    : 31.3 MiB (9%)\nLanguage                       : English\n\nSubtitle                       : Yes(English)\n &lt;a href=&quot;\nhttp://ultraimg.com/images/3CvQJ.png&quot; rel=&quot;nofollow&quot; target=&quot;_NEW&quot;&gt;\nhttp://ultraimg.com/images/3CvQJ.png&lt;/a&gt; &lt;a href=&quot;\nhttp://ultraimg.com/images/MVjD5.png&quot; rel=&quot;nofollow&quot; target=&quot;_NEW&quot;&gt;\nhttp://ultraimg.com/images/MVjD5.png&lt;/a&gt; &lt;a href=&quot;\nhttp://ultraimg.com/images/0jJa5.png&quot; rel=&quot;nofollow&quot; target=&quot;_NEW&quot;&gt;\nhttp://ultraimg.com/images/0jJa5.png&lt;/a&gt; &lt;a href=&quot;\nhttp://ultraimg.com/images/NLpI.png&quot; rel=&quot;nofollow&quot; target=&quot;_NEW&quot;&gt;\nhttp://ultraimg.com/images/NLpI.png&lt;/a&gt; &lt;a href=&quot;\nhttp://ultraimg.com/images/4neVf.png&quot; rel=&quot;nofollow&quot; target=&quot;_NEW&quot;&gt;\nhttp://ultraimg.com/images/4neVf.png&lt;/a&gt; &lt;a href=&quot;\nhttp://ultraimg.com/images/FyDLk.png&quot; rel=&quot;nofollow&quot; target=&quot;_NEW&quot;&gt;\nhttp://ultraimg.com/images/FyDLk.png&lt;/a&gt; &lt;a href=&quot;\nhttp://ultraimg.com/images/hElTS.png&quot; rel=&quot;nofollow&quot; target=&quot;_NEW&quot;&gt;\nhttp://ultraimg.com/images/hElTS.png&lt;/a&gt; &lt;a href=&quot;\nhttp://ultraimg.com/images/3m6n5.png&quot; rel=&quot;nofollow&quot; target=&quot;_NEW&quot;&gt;\nhttp://ultraimg.com/images/3m6n5.png&lt;/a&gt;\n\n\n----------------------------------------------------------------------------------------------------\n\n\nEncoded using revolutionary 10bit encoding, which enables us to provide you more crispier \nand sharper images at small sizes, just make sure you follow our instructions without a fault.\nRecommend to you to use latest version of VLC player. Install K-Lite Codec Pack or shark007 codecs\nin case of any kind of problem in playback (For non-VLC Media Player users). Alternatively, install\nCore AVC codecs, the fastest decoder that there is coupled with Community Center Codec Pack and play\non Windows Media Player Classic. Check sample to be sure.\nEnjoy!\n\nEncoder Notes:Looking For Early Access To Anything You Can Provide DVDScr, R5, DVDR, BluRay, Direct\nAudio, Music Releases and Seedboxes. We require dedicated servers, so as to do more \nand fast releases of movies.\nIf You Got anything to offer please contact us at &quot;&lt;a class=&quot;__cf_email__&quot; href=&quot;/cdn-cgi/l/email-protection&quot; data-cfemail=&quot;bdcdcfdafdd5c8ced593ded2d0&quot;&gt;[email&amp;#160;protected]&lt;/a&gt;&lt;script cf-hash='f9e31' type=&quot;text/javascript&quot;&gt;\n/* &lt;![CDATA[ */!function(){try{var t=&quot;currentScript&quot;in document?document.currentScript:function(){for(var t=document.getElementsByTagName(&quot;script&quot;),e=t.length;e--;)if(t[e].getAttribute(&quot;cf-hash&quot;))return t[e]}();if(t&amp;&amp;t.previousSibling){var e,r,n,i,c=t.previousSibling,a=c.getAttribute(&quot;data-cfemail&quot;);if(a){for(e=&quot;&quot;,r=parseInt(a.substr(0,2),16),n=2;a.length-n;n+=2)i=parseInt(a.substr(n,2),16)^r,e+=String.fromCharCode(i);e=document.createTextNode(e),c.parentNode.replaceChild(e,c)}}}catch(u){}}();/* ]]&gt; */&lt;/script&gt;&quot;.\n\nFace book Fan Page:  \nSearch P2PDL on FB!","torrent":{"xt":"urn:btih:1589737651f9659d04115e1f7c7bace17204ce1c","amp;dn":"Savannah+2013+WEBRip+480p+x264+AAC+-+VYTO+%5BP2PDL%5D","amp;tr":["udp%3A%2F%2Ftracker.openbittorrent.com%3A80","udp%3A%2F%2Fopen.demonii.com%3A1337","udp%3A%2F%2Ftracker.coppersurfer.tk%3A6969","udp%3A%2F%2Fexodus.desync.com%3A6969"],"infoHash":"1589737651f9659d04115e1f7c7bace17204ce1c","infoHashBuffer":{"type":"Buffer","data":[21,137,115,118,81,249,101,157,4,17,94,31,124,123,172,225,114,4,206,28]},"announce":[],"urlList":[]}}